<?xml version="1.0" encoding="UTF-8" standalone="no"?>
<!-- Created with Inkscape (http://www.inkscape.org/) -->

<svg
   width="148mm"
   height="210mm"
   viewBox="0 0 148 210"
   version="1.1"
   id="svg5"
   inkscape:version="1.1 (c68e22c387, 2021-05-23)"
   sodipodi:docname="0.svg"
   xmlns:inkscape="http://www.inkscape.org/namespaces/inkscape"
   xmlns:sodipodi="http://sodipodi.sourceforge.net/DTD/sodipodi-0.dtd"
   xmlns="http://www.w3.org/2000/svg"
   xmlns:svg="http://www.w3.org/2000/svg">
  <sodipodi:namedview
     id="namedview7"
     pagecolor="#ffffff"
     bordercolor="#666666"
     borderopacity="1.0"
     inkscape:pageshadow="2"
     inkscape:pageopacity="0.0"
     inkscape:pagecheckerboard="0"
     inkscape:document-units="mm"
     showgrid="false"
     inkscape:zoom="0.96635913"
     inkscape:cx="28.974735"
     inkscape:cy="384.43265"
     inkscape:window-width="1920"
     inkscape:window-height="1017"
     inkscape:window-x="1912"
     inkscape:window-y="-8"
     inkscape:window-maximized="1"
     inkscape:current-layer="layer1" />
  <defs
     id="defs2">
    <clipPath
       id="Clip_1">
      <path
         d="M0.796,366.915 L309.276,366.915 L309.276,-0.11 L0.796,-0.11 z"
         id="path22213" />
    </clipPath>
  </defs>
  <g
     inkscape:label="Layer 1"
     inkscape:groupmode="layer"
     id="layer1">
    <ellipse
       style="fill:#00ffff;stroke:none;stroke-width:1;stroke-linecap:round;stroke-linejoin:round"
       id="path26492"
       cx="41.47979"
       cy="89.256844"
       rx="48.598434"
       ry="30.664928" />
    <ellipse
       style="fill:#ffff00;stroke:none;stroke-width:2.31845;stroke-linecap:round;stroke-linejoin:round"
       id="path26366"
       cx="1.5058733"
       cy="37.235981"
       rx="70.501953"
       ry="44.628422" />
    <ellipse
       style="fill:#800080;stroke:none;stroke-width:1.19422;stroke-linecap:round;stroke-linejoin:round"
       id="path31"
       cx="108.69622"
       cy="26.694914"
       rx="87.516968"
       ry="70.952431" />
    <text
       xml:space="preserve"
       style="font-size:10.5833px;line-height:1.25;font-family:sans-serif;text-align:center;text-anchor:middle;fill:#ffffff;stroke-width:0.264583"
       x="76.146988"
       y="18.070404"
       id="text989"><tspan
         sodipodi:role="line"
         id="tspan10063"
         style="font-style:normal;font-variant:normal;font-weight:normal;font-stretch:normal;font-size:22.5778px;font-family:Gabriola;-inkscape-font-specification:'Gabriola, Normal';font-variant-ligatures:normal;font-variant-caps:normal;font-variant-numeric:normal;font-variant-east-asian:normal;fill:#ffffff"
         x="76.146988"
         y="18.070404">A beginners </tspan><tspan
         sodipodi:role="line"
         id="tspan10065"
         style="font-style:normal;font-variant:normal;font-weight:normal;font-stretch:normal;font-size:22.5778px;font-family:Gabriola;-inkscape-font-specification:'Gabriola, Normal';font-variant-ligatures:normal;font-variant-caps:normal;font-variant-numeric:normal;font-variant-east-asian:normal;fill:#ffffff"
         x="76.146988"
         y="46.292656">guide to</tspan><tspan
         sodipodi:role="line"
         id="tspan10067"
         x="76.146988"
         y="74.514908"
         style="font-style:normal;font-variant:normal;font-weight:normal;font-stretch:normal;font-size:22.5778px;font-family:Gabriola;-inkscape-font-specification:'Gabriola, Normal';font-variant-ligatures:normal;font-variant-caps:normal;font-variant-numeric:normal;font-variant-east-asian:normal;fill:#ffffff">git</tspan></text>
    <g
       clip-path="url(#Clip_1)"
       id="g22352"
       transform="matrix(0.26458333,0,0,0.26458333,33.058015,112.92041)">
      <path
         d="m 215.064,268.677 0.012,-0.042 -0.011,0.052 z m 1.811,30.284 -1.81,-30.265 c 0.039,0.182 5.982,28.337 10.995,45.942 -1.464,0.154 -2.862,0.379 -4.176,0.678 z m -77.473,249.561 v -3.641 c 0,0 -0.187,-0.021 -0.518,-0.048 l -0.693,-78.89 9.338,79.252 h 1.737 c -3.459,0.525 -7.028,1.519 -9.864,3.327 M 281.239,352.905 h -47.844 l -0.281,-0.917 h 13.456 c 1.14,0 2.064,-0.924 2.064,-2.064 v -7.423 c 0,-1.142 -0.924,-2.066 -2.064,-2.066 h -8.611 c 1.536,-0.668 2.983,-1.458 4.286,-2.395 0,0 9.874,4.3 12.638,-4.208 0,0 0.905,-6.251 -3.373,-11.662 1.33,-8.332 -6.239,-26.634 -9.506,-38.818 -3.433,-12.806 -9.376,-33.541 -14.346,-44.126 10.915,-3.858 16.481,-9.203 19.315,-13.711 C 334.25,195.87 305.395,81.592 263.184,41.792 256.453,35.446 249.788,30.261 243.239,26.079 242.75,25.397 242.233,24.752 241.68,24.152 222.354,3.208 172.08,-9.641 117.535,41.792 c -42.211,39.8 -71.067,154.078 16.211,183.723 1.483,2.359 3.722,4.947 7.076,7.432 H 8.432 c -2.068,0 -3.193,1.675 -2.514,3.742 l 33.398,101.783 c 0.678,2.067 2.903,3.742 4.969,3.742 h 0.654 c -0.014,0.095 -0.03,0.188 -0.03,0.287 v 7.423 c 0,1.14 0.924,2.064 2.065,2.064 h 99.788 l -0.281,0.917 H 14.239 v 16.835 h 133.635 c -0.46,2.227 -0.908,4.501 -1.331,6.808 -0.051,0.003 -0.104,0.007 -0.155,0.01 l -27.938,22.329 c -7.589,5.67 -8.051,12.837 -7.965,15.27 -0.496,3.91 -0.028,7.36 -0.028,7.36 l 14.573,123.678 h 1.737 c -4.668,0.707 -9.544,2.263 -12.535,5.533 -5.705,6.237 -2.188,8.236 -2.188,8.236 h 49.857 v -14.083 c 0,0 -0.187,-0.021 -0.518,-0.048 l -1.043,-118.673 10.87,0.013 c 0.26,0.441 0.357,0.676 0.357,0.676 0,0 49.189,2.501 61.304,-1.492 14.667,-4.833 7.866,-39.782 3.014,-49.098 -0.85,-1.632 -1.775,-3.901 -2.724,-6.519 h 48.078 c 1.658,0 3,-1.343 3,-3 v -10.835 c 0,-1.657 -1.342,-3 -3,-3"
         fill="#666666"
         id="path22218" />
      <path
         d="m 215.064,268.677 0.012,-0.042 -0.011,0.052 z m 1.811,30.284 -1.81,-30.265 c 0.039,0.182 5.982,28.337 10.995,45.942 -1.464,0.154 -2.862,0.379 -4.176,0.678 z m -77.473,249.561 v -3.641 c 0,0 -0.187,-0.021 -0.518,-0.048 l -0.693,-78.89 9.338,79.252 h 1.737 c -3.459,0.525 -7.028,1.519 -9.864,3.327 z M 281.239,352.905 h -47.844 l -0.281,-0.917 h 13.456 c 1.14,0 2.064,-0.924 2.064,-2.064 v -7.423 c 0,-1.142 -0.924,-2.066 -2.064,-2.066 h -8.611 c 1.536,-0.668 2.983,-1.458 4.286,-2.395 0,0 9.874,4.3 12.638,-4.208 0,0 0.905,-6.251 -3.373,-11.662 1.33,-8.332 -6.239,-26.634 -9.506,-38.818 -3.433,-12.806 -9.376,-33.541 -14.346,-44.126 10.915,-3.858 16.481,-9.203 19.315,-13.711 C 334.25,195.87 305.395,81.592 263.184,41.792 256.453,35.446 249.788,30.261 243.239,26.079 242.75,25.397 242.233,24.752 241.68,24.152 222.354,3.208 172.08,-9.641 117.535,41.792 c -42.211,39.8 -71.067,154.078 16.211,183.723 1.483,2.359 3.722,4.947 7.076,7.432 H 8.432 c -2.068,0 -3.193,1.675 -2.514,3.742 l 33.398,101.783 c 0.678,2.067 2.903,3.742 4.969,3.742 h 0.654 c -0.014,0.095 -0.03,0.188 -0.03,0.287 v 7.423 c 0,1.14 0.924,2.064 2.065,2.064 h 99.788 l -0.281,0.917 H 14.239 v 16.835 h 133.635 c -0.46,2.227 -0.908,4.501 -1.331,6.808 -0.051,0.003 -0.104,0.007 -0.155,0.01 l -27.938,22.329 c -7.589,5.67 -8.051,12.837 -7.965,15.27 -0.496,3.91 -0.028,7.36 -0.028,7.36 l 14.573,123.678 h 1.737 c -4.668,0.707 -9.544,2.263 -12.535,5.533 -5.705,6.237 -2.188,8.236 -2.188,8.236 h 49.857 v -14.083 c 0,0 -0.187,-0.021 -0.518,-0.048 l -1.043,-118.673 10.87,0.013 c 0.26,0.441 0.357,0.676 0.357,0.676 0,0 49.189,2.501 61.304,-1.492 14.667,-4.833 7.866,-39.782 3.014,-49.098 -0.85,-1.632 -1.775,-3.901 -2.724,-6.519 h 48.078 c 1.658,0 3,-1.343 3,-3 v -10.835 c 0,-1.657 -1.342,-3 -3,-3 z"
         fill-opacity="0"
         stroke="#666666"
         stroke-width="8"
         stroke-linecap="round"
         stroke-linejoin="round"
         id="path22220" />
      <path
         d="m 263.184,41.792 c -6.731,-6.346 -13.396,-11.531 -19.945,-15.713 -0.489,-0.682 -1.006,-1.328 -1.559,-1.927 -19.326,-20.944 -69.6,-33.793 -124.145,17.64 -42.211,39.8 -71.067,154.078 16.211,183.722 5.058,8.049 18.81,18.764 56.192,18.925 v 0.006 c 0.142,0 0.279,-0.003 0.422,-0.003 0.142,0 0.279,0.003 0.421,0.003 v -0.006 c 37.381,-0.161 51.134,-10.876 56.192,-18.924 87.276,-29.645 58.421,-143.923 16.211,-183.723"
         fill="#cc8757"
         id="path22222" />
      <path
         d="m 263.184,41.792 c -6.731,-6.346 -13.396,-11.531 -19.945,-15.713 -0.489,-0.682 -1.006,-1.328 -1.559,-1.927 -19.326,-20.944 -69.6,-33.793 -124.145,17.64 -42.211,39.8 -71.067,154.078 16.211,183.722 5.058,8.049 18.81,18.764 56.192,18.925 v 0.006 c 0.142,0 0.279,-0.003 0.422,-0.003 0.142,0 0.279,0.003 0.421,0.003 v -0.006 c 37.381,-0.161 51.134,-10.876 56.192,-18.924 87.276,-29.645 58.421,-143.923 16.211,-183.723 z"
         fill-opacity="0"
         stroke="#666666"
         stroke-width="4"
         stroke-linecap="round"
         stroke-linejoin="round"
         id="path22224" />
      <path
         d="m 190.096,346.623 28.353,-1.854 -25.728,-100.356 -2.783,0.414 -2.783,-0.414 -25.729,100.356 28.354,1.854 v 0.021 l 0.158,-0.01 0.158,0.01 z"
         fill="#ffffff"
         id="path22226" />
      <path
         d="m 190.096,346.623 28.353,-1.854 -25.728,-100.356 -2.783,0.414 -2.783,-0.414 -25.729,100.356 28.354,1.854 v 0.021 l 0.158,-0.01 0.158,0.01 z"
         fill-opacity="0"
         stroke="#000000"
         stroke-width="4"
         id="path22228" />
      <path
         d="m 218.082,324.993 h -56.289 l -4.229,12.266 h 64.748 z"
         fill="#666666"
         id="path22230" />
      <path
         d="m 218.082,324.993 h -56.289 l -4.229,12.266 h 64.748 z"
         fill-opacity="0"
         stroke="#666666"
         stroke-width="4"
         stroke-linecap="round"
         stroke-linejoin="round"
         id="path22232" />
      <g
         id="g22238">
        <path
           d="m 164.812,268.677 -1.812,30.284 -20.019,65.374 30.068,1.992 h 0.001 c 0,0 0.005,0 0.006,10e-4 l 0.411,0.021 c 1.234,0.024 4.943,-0.227 6.842,-3.932 2.297,-4.484 2.062,-15.24 2.062,-15.24 l 7.567,-118.16 c 0,0 -23.61,-1.665 -33.356,3.748 -0.658,0.365 -1.345,1.042 -2.054,1.985"
           fill="#ebe5dd"
           id="path22234" />
        <path
           d="m 164.812,268.677 -1.812,30.284 -20.019,65.374 30.068,1.992 h 0.001 c 0,0 0.005,0 0.006,10e-4 l 0.411,0.021 c 1.234,0.024 4.943,-0.227 6.842,-3.932 2.297,-4.484 2.062,-15.24 2.062,-15.24 l 7.567,-118.16 c 0,0 -23.61,-1.665 -33.356,3.748 -0.658,0.365 -1.345,1.042 -2.054,1.985"
           fill-opacity="0"
           stroke="#666666"
           stroke-width="4"
           stroke-linecap="round"
           stroke-linejoin="round"
           id="path22236" />
      </g>
      <g
         id="g22244">
        <path
           d="m 215.064,268.677 1.811,30.284 20.02,65.374 -30.069,1.992 h -0.001 c 0,0 -0.004,0 -0.005,10e-4 l -0.412,0.021 c -1.234,0.024 -4.943,-0.227 -6.841,-3.932 -2.297,-4.484 -2.063,-15.24 -2.063,-15.24 l -7.566,-118.16 c 0,0 23.609,-1.665 33.355,3.748 0.658,0.365 1.346,1.042 2.055,1.985"
           fill="#ebe5dd"
           id="path22240" />
        <path
           d="m 215.064,268.677 1.811,30.284 20.02,65.374 -30.069,1.992 h -0.001 c 0,0 -0.004,0 -0.005,10e-4 l -0.412,0.021 c -1.234,0.024 -4.943,-0.227 -6.841,-3.932 -2.297,-4.484 -2.063,-15.24 -2.063,-15.24 l -7.566,-118.16 c 0,0 23.609,-1.665 33.355,3.748 0.658,0.365 1.346,1.042 2.055,1.985"
           fill-opacity="0"
           stroke="#666666"
           stroke-width="4"
           stroke-linecap="round"
           stroke-linejoin="round"
           id="path22242" />
      </g>
      <path
         d="m 197.789,229.718 -1.361,-14.38 -6.49,-4.22 -6.49,4.22 -1.362,14.38 -8.955,0.545 c 0,0 6.682,14.606 16.807,14.606 10.127,0 16.807,-14.606 16.807,-14.606 z"
         fill="#ffecd0"
         id="path22246" />
      <path
         d="m 197.789,229.718 -1.361,-14.38 -6.49,-4.22 -6.49,4.22 -1.362,14.38 -8.955,0.545 c 0,0 6.682,14.606 16.807,14.606 10.127,0 16.807,-14.606 16.807,-14.606 z"
         fill-opacity="0"
         stroke="#666666"
         stroke-width="4"
         stroke-linecap="round"
         stroke-linejoin="round"
         id="path22248" />
      <g
         id="g22254">
        <path
           d="m 223.293,232.765 c 5.267,2.924 14.177,33.675 18.711,50.587 3.302,12.314 11.004,30.884 9.466,39.088 -2,10.667 -16.909,14.408 -21.75,3.25 -5.122,-11.805 -14.656,-57 -14.656,-57"
           fill="#ebe5dd"
           id="path22250" />
        <path
           d="m 223.293,232.765 c 5.267,2.924 14.177,33.675 18.711,50.587 3.302,12.314 11.004,30.884 9.466,39.088 -2,10.667 -16.909,14.408 -21.75,3.25 -5.122,-11.805 -14.656,-57 -14.656,-57"
           fill-opacity="0"
           stroke="#666666"
           stroke-width="4"
           stroke-linecap="round"
           stroke-linejoin="round"
           id="path22252" />
      </g>
      <path
         d="m 254.883,333.832 c 0,0 2.562,-17.662 -21.247,-19.311 -23.809,-1.648 -32.812,14.843 -28.311,23.128 3.275,6.029 25.451,8.636 36.92,0.391 0,0 9.874,4.3 12.638,-4.208"
         fill="#ffecd0"
         id="path22256" />
      <path
         d="m 254.883,333.832 c 0,0 2.562,-17.662 -21.247,-19.311 -23.809,-1.648 -32.812,14.843 -28.311,23.128 3.275,6.029 25.451,8.636 36.92,0.391 0,0 9.874,4.3 12.638,-4.208 z"
         fill-opacity="0"
         stroke="#666666"
         stroke-width="4"
         stroke-linecap="round"
         stroke-linejoin="round"
         id="path22258" />
      <g
         id="g22264">
        <path
           d="m 227.699,330.034 c 0,0 -2.238,3.365 -1.074,7.081 1.915,6.112 0,0 0,0"
           fill="#7b8394"
           id="path22260" />
        <path
           d="m 227.699,330.034 c 0,0 -2.238,3.365 -1.074,7.081 1.915,6.112 0,0 0,0"
           fill-opacity="0"
           stroke="#666666"
           stroke-width="4"
           stroke-linecap="round"
           stroke-linejoin="round"
           id="path22262" />
      </g>
      <g
         id="g22270">
        <path
           d="m 218.345,327.003 c 0,0 -4.166,2.725 -3.537,9.556 0.977,10.633 0,0 0,0"
           fill="#7b8394"
           id="path22266" />
        <path
           d="m 218.345,327.003 c 0,0 -4.166,2.725 -3.537,9.556 0.977,10.633 0,0 0,0"
           fill-opacity="0"
           stroke="#666666"
           stroke-width="4"
           stroke-linecap="round"
           stroke-linejoin="round"
           id="path22268" />
      </g>
      <path
         d="m 235.885,376.259 c -4.852,-9.317 -12.162,-39.114 -12.162,-39.114 h -67.57 c 0,0 -5.777,18.518 -9.61,39.403 -0.051,0.003 -0.104,0.007 -0.155,0.01 l -29.09,23.25 c 0,0 12.941,-3.451 30.275,6.882 20.864,12.437 23.994,20.159 23.994,20.159 0,0 49.189,2.501 61.304,-1.492 14.667,-4.833 7.866,-39.782 3.014,-49.098"
         fill="#ffd961"
         id="path22272" />
      <path
         d="m 235.885,376.259 c -4.852,-9.317 -12.162,-39.114 -12.162,-39.114 h -67.57 c 0,0 -5.777,18.518 -9.61,39.403 -0.051,0.003 -0.104,0.007 -0.155,0.01 l -29.09,23.25 c 0,0 12.941,-3.451 30.275,6.882 20.864,12.437 23.994,20.159 23.994,20.159 0,0 49.189,2.501 61.304,-1.492 14.667,-4.833 7.866,-39.782 3.014,-49.098 z"
         fill-opacity="0"
         stroke="#666666"
         stroke-width="4"
         stroke-linecap="round"
         stroke-linejoin="round"
         id="path22274" />
      <path
         d="m 14.239,369.74 h 267 c 1.658,0 3,-1.343 3,-3 v -10.835 c 0,-1.657 -1.342,-3 -3,-3 h -267 z"
         fill="#ffeeb0"
         id="path22276" />
      <path
         d="m 14.239,369.74 h 267 c 1.658,0 3,-1.343 3,-3 v -10.835 c 0,-1.657 -1.342,-3 -3,-3 h -267 z"
         fill-opacity="0"
         stroke="#666666"
         stroke-width="4"
         stroke-linecap="round"
         stroke-linejoin="round"
         id="path22278" />
      <g
         id="g22284">
        <path
           d="m 118.828,126.311 c 0,0 -28.142,-5.808 -28.142,19.636 0,14.967 9.689,21.763 29.607,22.048"
           fill="#ffecd0"
           id="path22280" />
        <path
           d="m 118.828,126.311 c 0,0 -28.142,-5.808 -28.142,19.636 0,14.967 9.689,21.763 29.607,22.048"
           fill-opacity="0"
           stroke="#666666"
           stroke-width="4"
           stroke-linecap="round"
           stroke-linejoin="round"
           id="path22282" />
      </g>
      <g
         id="g22290">
        <path
           d="m 101.41,147.324 c 0,0 3.69,-1.704 7.205,-1.682"
           fill="#ffecd0"
           id="path22286" />
        <path
           d="m 101.41,147.324 c 0,0 3.69,-1.704 7.205,-1.682"
           fill-opacity="0"
           stroke="#666666"
           stroke-width="4"
           stroke-linecap="round"
           stroke-linejoin="round"
           id="path22288" />
      </g>
      <g
         id="g22296">
        <path
           d="m 261.047,126.311 c 0,0 28.143,-5.808 28.143,19.636 0,14.967 -9.688,21.763 -29.606,22.048"
           fill="#ffecd0"
           id="path22292" />
        <path
           d="m 261.047,126.311 c 0,0 28.143,-5.808 28.143,19.636 0,14.967 -9.688,21.763 -29.606,22.048"
           fill-opacity="0"
           stroke="#666666"
           stroke-width="4"
           stroke-linecap="round"
           stroke-linejoin="round"
           id="path22294" />
      </g>
      <g
         id="g22302">
        <path
           d="m 278.467,147.324 c 0,0 -3.689,-1.704 -7.205,-1.682"
           fill="#ffecd0"
           id="path22298" />
        <path
           d="m 278.467,147.324 c 0,0 -3.689,-1.704 -7.205,-1.682"
           fill-opacity="0"
           stroke="#666666"
           stroke-width="4"
           stroke-linecap="round"
           stroke-linejoin="round"
           id="path22300" />
      </g>
      <path
         d="m 189.938,223.878 c -120.76,0 -109.076,-196.947 0,-196.947 109.076,0 120.76,196.947 0,196.947"
         fill="#ffecd0"
         id="path22304" />
      <path
         d="m 189.938,223.878 c -120.76,0 -109.076,-196.947 0,-196.947 109.076,0 120.76,196.947 0,196.947 z"
         fill-opacity="0"
         stroke="#666666"
         stroke-width="4"
         stroke-linecap="round"
         stroke-linejoin="round"
         id="path22306" />
      <path
         d="m 186.02,163.357 c 0,0 -1.334,6 3.918,5.667"
         fill-opacity="0"
         stroke="#666666"
         stroke-width="4"
         stroke-linecap="round"
         stroke-linejoin="round"
         id="path22308" />
      <path
         d="m 213.524,182.225 c 0,0 -8.016,9.84 -23.586,9.84 -15.569,0 -23.584,-9.84 -23.584,-9.84"
         fill-opacity="0"
         stroke="#666666"
         stroke-width="4"
         stroke-linecap="round"
         stroke-linejoin="round"
         id="path22310" />
      <path
         d="m 217.221,88.591 c 0,0 3.088,-5 10.301,-5 5.185,0 10.5,6.5 10.5,6.5"
         fill-opacity="0"
         stroke="#666666"
         stroke-width="4"
         stroke-linecap="round"
         stroke-linejoin="round"
         id="path22312" />
      <path
         d="m 231.852,130.106 c 0,7.627 -2.539,13.81 -5.67,13.81 -3.129,0 -5.668,-6.183 -5.668,-13.81 0,-7.627 2.539,-13.808 5.668,-13.808 3.131,0 5.67,6.181 5.67,13.808"
         fill="#666666"
         id="path22314" />
      <path
         d="m 241.453,49.283 c 0,0 9.118,66.312 40.78,73.976 0,0 -8.319,-90.048 -40.78,-73.976"
         fill="#cc8757"
         id="path22316" />
      <g
         id="g22322">
        <path
           d="m 241.861,51.686 c 0,0 11.539,65.406 37.539,72.739"
           fill="#cc8757"
           id="path22318" />
        <path
           d="m 241.861,51.686 c 0,0 11.539,65.406 37.539,72.739"
           fill-opacity="0"
           stroke="#666666"
           stroke-width="4"
           stroke-linecap="round"
           stroke-linejoin="round"
           id="path22320" />
      </g>
      <path
         d="m 242.733,45.092 c 0,0 -34.466,-44.189 -102.33,-10.995 -32.139,15.719 -47.002,88.996 -47.002,88.996 0,0 86.332,-27.667 114.332,-45.667 14.816,-9.525 35,-32.334 35,-32.334"
         fill="#cc8757"
         id="path22324" />
      <g
         id="g22330">
        <path
           d="M 245.013,43.615 C 235.055,63.422 181.4,107.092 137.922,111.408"
           fill="#cc8757"
           id="path22326" />
        <path
           d="M 245.013,43.615 C 235.055,63.422 181.4,107.092 137.922,111.408"
           fill-opacity="0"
           stroke="#666666"
           stroke-width="4"
           stroke-linecap="round"
           stroke-linejoin="round"
           id="path22328" />
      </g>
      <g
         id="g22336">
        <path
           d="m 193.398,47.094 c -12.667,29.333 -40.895,71.243 -96.665,76.665"
           fill="#cc8757"
           id="path22332" />
        <path
           d="m 193.398,47.094 c -12.667,29.333 -40.895,71.243 -96.665,76.665"
           fill-opacity="0"
           stroke="#666666"
           stroke-width="4"
           stroke-linecap="round"
           stroke-linejoin="round"
           id="path22334" />
      </g>
      <path
         d="m 162.656,88.591 c 0,0 -3.087,-5 -10.3,-5 -5.188,0 -10.5,6.5 -10.5,6.5"
         fill-opacity="0"
         stroke="#666666"
         stroke-width="4"
         stroke-linecap="round"
         stroke-linejoin="round"
         id="path22338" />
      <path
         d="m 148.026,130.106 c 0,7.627 2.537,13.81 5.668,13.81 3.13,0 5.668,-6.183 5.668,-13.81 0,-7.627 -2.538,-13.808 -5.668,-13.808 -3.131,0 -5.668,6.181 -5.668,13.808"
         fill="#666666"
         id="path22340" />
      <path
         d="m 44.909,349.924 c 0,1.14 0.924,2.064 2.065,2.064 H 246.57 c 1.14,0 2.064,-0.924 2.064,-2.064 v -7.423 c 0,-1.142 -0.924,-2.066 -2.064,-2.066 H 46.974 c -1.141,0 -2.065,0.924 -2.065,2.066 z"
         fill="#dee1e3"
         id="path22342" />
      <path
         d="m 44.909,349.924 c 0,1.14 0.924,2.064 2.065,2.064 H 246.57 c 1.14,0 2.064,-0.924 2.064,-2.064 v -7.423 c 0,-1.142 -0.924,-2.066 -2.064,-2.066 H 46.974 c -1.141,0 -2.065,0.924 -2.065,2.066 z"
         fill-opacity="0"
         stroke="#666666"
         stroke-width="4"
         stroke-linecap="round"
         stroke-linejoin="round"
         id="path22344" />
      <path
         d="m 39.316,338.472 c 0.678,2.067 2.903,3.742 4.969,3.742 h 142.197 c 2.066,0 3.192,-1.675 2.514,-3.742 L 155.599,236.689 c -0.678,-2.067 -2.902,-3.742 -4.971,-3.742 H 8.432 c -2.068,0 -3.193,1.675 -2.514,3.742 z"
         fill="#dee1e3"
         id="path22346" />
      <path
         d="m 39.316,338.472 c 0.678,2.067 2.903,3.742 4.969,3.742 h 142.197 c 2.066,0 3.192,-1.675 2.514,-3.742 L 155.599,236.689 c -0.678,-2.067 -2.902,-3.742 -4.971,-3.742 H 8.432 c -2.068,0 -3.193,1.675 -2.514,3.742 z"
         fill-opacity="0"
         stroke="#666666"
         stroke-width="4"
         stroke-linecap="round"
         stroke-linejoin="round"
         id="path22348" />
      <path
         d="m 178.144,332.621 -28.78,-87.711 c -0.678,-2.067 -2.903,-3.742 -4.97,-3.742 H 16.573"
         fill-opacity="0"
         stroke="#666666"
         stroke-width="4"
         stroke-linecap="round"
         stroke-linejoin="round"
         id="path22350" />
    </g>
    <text
       xml:space="preserve"
       style="font-style:normal;font-variant:normal;font-weight:normal;font-stretch:normal;font-size:10.5833px;line-height:1.25;font-family:Gabriola;-inkscape-font-specification:'Gabriola, Normal';font-variant-ligatures:normal;font-variant-caps:normal;font-variant-numeric:normal;font-variant-east-asian:normal;text-align:center;text-anchor:middle;stroke-width:0.264583"
       x="41.54826"
       y="99.403442"
       id="text1978"><tspan
         sodipodi:role="line"
         id="tspan1976"
         style="font-style:normal;font-variant:normal;font-weight:normal;font-stretch:normal;font-size:10.5833px;font-family:Gabriola;-inkscape-font-specification:'Gabriola, Normal';font-variant-ligatures:normal;font-variant-caps:normal;font-variant-numeric:normal;font-variant-east-asian:normal;stroke-width:0.264583"
         x="41.54826"
         y="99.403442">By Hannah Ellis</tspan></text>
  </g>
</svg>
