<?xml version="1.0" encoding="UTF-8" standalone="no"?>
<!-- Created with Inkscape (http://www.inkscape.org/) -->

<svg
   width="148mm"
   height="210mm"
   viewBox="0 0 148 210"
   version="1.1"
   id="svg26762"
   inkscape:version="1.1 (c68e22c387, 2021-05-23)"
   sodipodi:docname="1.svg"
   xmlns:inkscape="http://www.inkscape.org/namespaces/inkscape"
   xmlns:sodipodi="http://sodipodi.sourceforge.net/DTD/sodipodi-0.dtd"
   xmlns="http://www.w3.org/2000/svg"
   xmlns:svg="http://www.w3.org/2000/svg">
  <sodipodi:namedview
     id="namedview26764"
     pagecolor="#ffffff"
     bordercolor="#666666"
     borderopacity="1.0"
     inkscape:pageshadow="2"
     inkscape:pageopacity="0.0"
     inkscape:pagecheckerboard="0"
     inkscape:document-units="mm"
     showgrid="false"
     inkscape:zoom="0.96635913"
     inkscape:cx="279.39923"
     inkscape:cy="396.85039"
     inkscape:window-width="1920"
     inkscape:window-height="1017"
     inkscape:window-x="1912"
     inkscape:window-y="-8"
     inkscape:window-maximized="1"
     inkscape:current-layer="layer1"
     showguides="true"
     inkscape:guide-bbox="true">
    <sodipodi:guide
       position="0,205"
       orientation="0,1"
       id="guide27344"
       inkscape:label=""
       inkscape:locked="false"
       inkscape:color="rgb(0,0,255)" />
    <sodipodi:guide
       position="5,210"
       orientation="-1,0"
       id="guide27346"
       inkscape:label=""
       inkscape:locked="false"
       inkscape:color="rgb(0,0,255)" />
    <sodipodi:guide
       position="143,210"
       orientation="-1,0"
       id="guide27357"
       inkscape:label=""
       inkscape:locked="false"
       inkscape:color="rgb(0,0,255)" />
    <sodipodi:guide
       position="0,5"
       orientation="0,1"
       id="guide27369"
       inkscape:label=""
       inkscape:locked="false"
       inkscape:color="rgb(0,0,255)" />
    <sodipodi:guide
       position="0,102.5"
       orientation="0,1"
       id="guide27473"
       inkscape:label=""
       inkscape:locked="false"
       inkscape:color="rgb(0,0,255)" />
    <sodipodi:guide
       position="0,107.5"
       orientation="0,1"
       id="guide27486"
       inkscape:label=""
       inkscape:locked="false"
       inkscape:color="rgb(0,0,255)" />
  </sodipodi:namedview>
  <defs
     id="defs26759">
    <clipPath
       id="Clip_1">
      <path
         d="M0.796,366.915 L309.276,366.915 L309.276,-0.11 L0.796,-0.11 z"
         id="path975" />
    </clipPath>
  </defs>
  <g
     inkscape:label="Layer 1"
     inkscape:groupmode="layer"
     id="layer1">
    <g
       id="g20733">
      <g
         id="g10733"
         transform="translate(0.24989195,-0.2498833)">
        <rect
           style="fill:#ffffff;stroke:#000000;stroke-width:0.506989;stroke-linecap:round;stroke-linejoin:round;stroke-miterlimit:4;stroke-dasharray:none;stroke-opacity:1"
           id="rect27078"
           width="137.50023"
           height="97.250114"
           x="5.2498851"
           y="5.2498851"
           ry="8.5710459" />
        <rect
           style="fill:#ffffff;stroke:#000000;stroke-width:0.50764;stroke-linecap:round;stroke-linejoin:round;stroke-miterlimit:4;stroke-dasharray:none;stroke-opacity:1"
           id="rect27335"
           width="137.50023"
           height="97.5"
           x="5.4997754"
           y="107.5"
           ry="8.59307" />
      </g>
      <g
         clip-path="url(#Clip_1)"
         id="g1114"
         transform="matrix(0.14988669,0,0,0.14988669,12.947135,47.59231)">
        <path
           d="m 215.064,268.677 0.012,-0.042 -0.011,0.052 z m 1.811,30.284 -1.81,-30.265 c 0.039,0.182 5.982,28.337 10.995,45.942 -1.464,0.154 -2.862,0.379 -4.176,0.678 z m -77.473,249.561 v -3.641 c 0,0 -0.187,-0.021 -0.518,-0.048 l -0.693,-78.89 9.338,79.252 h 1.737 c -3.459,0.525 -7.028,1.519 -9.864,3.327 M 281.239,352.905 h -47.844 l -0.281,-0.917 h 13.456 c 1.14,0 2.064,-0.924 2.064,-2.064 v -7.423 c 0,-1.142 -0.924,-2.066 -2.064,-2.066 h -8.611 c 1.536,-0.668 2.983,-1.458 4.286,-2.395 0,0 9.874,4.3 12.638,-4.208 0,0 0.905,-6.251 -3.373,-11.662 1.33,-8.332 -6.239,-26.634 -9.506,-38.818 -3.433,-12.806 -9.376,-33.541 -14.346,-44.126 10.915,-3.858 16.481,-9.203 19.315,-13.711 C 334.25,195.87 305.395,81.592 263.184,41.792 256.453,35.446 249.788,30.261 243.239,26.079 242.75,25.397 242.233,24.752 241.68,24.152 222.354,3.208 172.08,-9.641 117.535,41.792 c -42.211,39.8 -71.067,154.078 16.211,183.723 1.483,2.359 3.722,4.947 7.076,7.432 H 8.432 c -2.068,0 -3.193,1.675 -2.514,3.742 l 33.398,101.783 c 0.678,2.067 2.903,3.742 4.969,3.742 h 0.654 c -0.014,0.095 -0.03,0.188 -0.03,0.287 v 7.423 c 0,1.14 0.924,2.064 2.065,2.064 h 99.788 l -0.281,0.917 H 14.239 v 16.835 h 133.635 c -0.46,2.227 -0.908,4.501 -1.331,6.808 -0.051,0.003 -0.104,0.007 -0.155,0.01 l -27.938,22.329 c -7.589,5.67 -8.051,12.837 -7.965,15.27 -0.496,3.91 -0.028,7.36 -0.028,7.36 l 14.573,123.678 h 1.737 c -4.668,0.707 -9.544,2.263 -12.535,5.533 -5.705,6.237 -2.188,8.236 -2.188,8.236 h 49.857 v -14.083 c 0,0 -0.187,-0.021 -0.518,-0.048 l -1.043,-118.673 10.87,0.013 c 0.26,0.441 0.357,0.676 0.357,0.676 0,0 49.189,2.501 61.304,-1.492 14.667,-4.833 7.866,-39.782 3.014,-49.098 -0.85,-1.632 -1.775,-3.901 -2.724,-6.519 h 48.078 c 1.658,0 3,-1.343 3,-3 v -10.835 c 0,-1.657 -1.342,-3 -3,-3"
           fill="#666666"
           id="path980" />
        <path
           d="m 215.064,268.677 0.012,-0.042 -0.011,0.052 z m 1.811,30.284 -1.81,-30.265 c 0.039,0.182 5.982,28.337 10.995,45.942 -1.464,0.154 -2.862,0.379 -4.176,0.678 z m -77.473,249.561 v -3.641 c 0,0 -0.187,-0.021 -0.518,-0.048 l -0.693,-78.89 9.338,79.252 h 1.737 c -3.459,0.525 -7.028,1.519 -9.864,3.327 z M 281.239,352.905 h -47.844 l -0.281,-0.917 h 13.456 c 1.14,0 2.064,-0.924 2.064,-2.064 v -7.423 c 0,-1.142 -0.924,-2.066 -2.064,-2.066 h -8.611 c 1.536,-0.668 2.983,-1.458 4.286,-2.395 0,0 9.874,4.3 12.638,-4.208 0,0 0.905,-6.251 -3.373,-11.662 1.33,-8.332 -6.239,-26.634 -9.506,-38.818 -3.433,-12.806 -9.376,-33.541 -14.346,-44.126 10.915,-3.858 16.481,-9.203 19.315,-13.711 C 334.25,195.87 305.395,81.592 263.184,41.792 256.453,35.446 249.788,30.261 243.239,26.079 242.75,25.397 242.233,24.752 241.68,24.152 222.354,3.208 172.08,-9.641 117.535,41.792 c -42.211,39.8 -71.067,154.078 16.211,183.723 1.483,2.359 3.722,4.947 7.076,7.432 H 8.432 c -2.068,0 -3.193,1.675 -2.514,3.742 l 33.398,101.783 c 0.678,2.067 2.903,3.742 4.969,3.742 h 0.654 c -0.014,0.095 -0.03,0.188 -0.03,0.287 v 7.423 c 0,1.14 0.924,2.064 2.065,2.064 h 99.788 l -0.281,0.917 H 14.239 v 16.835 h 133.635 c -0.46,2.227 -0.908,4.501 -1.331,6.808 -0.051,0.003 -0.104,0.007 -0.155,0.01 l -27.938,22.329 c -7.589,5.67 -8.051,12.837 -7.965,15.27 -0.496,3.91 -0.028,7.36 -0.028,7.36 l 14.573,123.678 h 1.737 c -4.668,0.707 -9.544,2.263 -12.535,5.533 -5.705,6.237 -2.188,8.236 -2.188,8.236 h 49.857 v -14.083 c 0,0 -0.187,-0.021 -0.518,-0.048 l -1.043,-118.673 10.87,0.013 c 0.26,0.441 0.357,0.676 0.357,0.676 0,0 49.189,2.501 61.304,-1.492 14.667,-4.833 7.866,-39.782 3.014,-49.098 -0.85,-1.632 -1.775,-3.901 -2.724,-6.519 h 48.078 c 1.658,0 3,-1.343 3,-3 v -10.835 c 0,-1.657 -1.342,-3 -3,-3 z"
           fill-opacity="0"
           stroke="#666666"
           stroke-width="8"
           stroke-linecap="round"
           stroke-linejoin="round"
           id="path982" />
        <path
           d="m 263.184,41.792 c -6.731,-6.346 -13.396,-11.531 -19.945,-15.713 -0.489,-0.682 -1.006,-1.328 -1.559,-1.927 -19.326,-20.944 -69.6,-33.793 -124.145,17.64 -42.211,39.8 -71.067,154.078 16.211,183.722 5.058,8.049 18.81,18.764 56.192,18.925 v 0.006 c 0.142,0 0.279,-0.003 0.422,-0.003 0.142,0 0.279,0.003 0.421,0.003 v -0.006 c 37.381,-0.161 51.134,-10.876 56.192,-18.924 87.276,-29.645 58.421,-143.923 16.211,-183.723"
           fill="#cc8757"
           id="path984" />
        <path
           d="m 263.184,41.792 c -6.731,-6.346 -13.396,-11.531 -19.945,-15.713 -0.489,-0.682 -1.006,-1.328 -1.559,-1.927 -19.326,-20.944 -69.6,-33.793 -124.145,17.64 -42.211,39.8 -71.067,154.078 16.211,183.722 5.058,8.049 18.81,18.764 56.192,18.925 v 0.006 c 0.142,0 0.279,-0.003 0.422,-0.003 0.142,0 0.279,0.003 0.421,0.003 v -0.006 c 37.381,-0.161 51.134,-10.876 56.192,-18.924 87.276,-29.645 58.421,-143.923 16.211,-183.723 z"
           fill-opacity="0"
           stroke="#666666"
           stroke-width="4"
           stroke-linecap="round"
           stroke-linejoin="round"
           id="path986" />
        <path
           d="m 190.096,346.623 28.353,-1.854 -25.728,-100.356 -2.783,0.414 -2.783,-0.414 -25.729,100.356 28.354,1.854 v 0.021 l 0.158,-0.01 0.158,0.01 z"
           fill="#ffffff"
           id="path988" />
        <path
           d="m 190.096,346.623 28.353,-1.854 -25.728,-100.356 -2.783,0.414 -2.783,-0.414 -25.729,100.356 28.354,1.854 v 0.021 l 0.158,-0.01 0.158,0.01 z"
           fill-opacity="0"
           stroke="#000000"
           stroke-width="4"
           id="path990" />
        <path
           d="m 218.082,324.993 h -56.289 l -4.229,12.266 h 64.748 z"
           fill="#666666"
           id="path992" />
        <path
           d="m 218.082,324.993 h -56.289 l -4.229,12.266 h 64.748 z"
           fill-opacity="0"
           stroke="#666666"
           stroke-width="4"
           stroke-linecap="round"
           stroke-linejoin="round"
           id="path994" />
        <g
           id="g1000">
          <path
             d="m 164.812,268.677 -1.812,30.284 -20.019,65.374 30.068,1.992 h 0.001 c 0,0 0.005,0 0.006,10e-4 l 0.411,0.021 c 1.234,0.024 4.943,-0.227 6.842,-3.932 2.297,-4.484 2.062,-15.24 2.062,-15.24 l 7.567,-118.16 c 0,0 -23.61,-1.665 -33.356,3.748 -0.658,0.365 -1.345,1.042 -2.054,1.985"
             fill="#ebe5dd"
             id="path996" />
          <path
             d="m 164.812,268.677 -1.812,30.284 -20.019,65.374 30.068,1.992 h 0.001 c 0,0 0.005,0 0.006,10e-4 l 0.411,0.021 c 1.234,0.024 4.943,-0.227 6.842,-3.932 2.297,-4.484 2.062,-15.24 2.062,-15.24 l 7.567,-118.16 c 0,0 -23.61,-1.665 -33.356,3.748 -0.658,0.365 -1.345,1.042 -2.054,1.985"
             fill-opacity="0"
             stroke="#666666"
             stroke-width="4"
             stroke-linecap="round"
             stroke-linejoin="round"
             id="path998" />
        </g>
        <g
           id="g1006">
          <path
             d="m 215.064,268.677 1.811,30.284 20.02,65.374 -30.069,1.992 h -0.001 c 0,0 -0.004,0 -0.005,10e-4 l -0.412,0.021 c -1.234,0.024 -4.943,-0.227 -6.841,-3.932 -2.297,-4.484 -2.063,-15.24 -2.063,-15.24 l -7.566,-118.16 c 0,0 23.609,-1.665 33.355,3.748 0.658,0.365 1.346,1.042 2.055,1.985"
             fill="#ebe5dd"
             id="path1002" />
          <path
             d="m 215.064,268.677 1.811,30.284 20.02,65.374 -30.069,1.992 h -0.001 c 0,0 -0.004,0 -0.005,10e-4 l -0.412,0.021 c -1.234,0.024 -4.943,-0.227 -6.841,-3.932 -2.297,-4.484 -2.063,-15.24 -2.063,-15.24 l -7.566,-118.16 c 0,0 23.609,-1.665 33.355,3.748 0.658,0.365 1.346,1.042 2.055,1.985"
             fill-opacity="0"
             stroke="#666666"
             stroke-width="4"
             stroke-linecap="round"
             stroke-linejoin="round"
             id="path1004" />
        </g>
        <path
           d="m 197.789,229.718 -1.361,-14.38 -6.49,-4.22 -6.49,4.22 -1.362,14.38 -8.955,0.545 c 0,0 6.682,14.606 16.807,14.606 10.127,0 16.807,-14.606 16.807,-14.606 z"
           fill="#ffecd0"
           id="path1008" />
        <path
           d="m 197.789,229.718 -1.361,-14.38 -6.49,-4.22 -6.49,4.22 -1.362,14.38 -8.955,0.545 c 0,0 6.682,14.606 16.807,14.606 10.127,0 16.807,-14.606 16.807,-14.606 z"
           fill-opacity="0"
           stroke="#666666"
           stroke-width="4"
           stroke-linecap="round"
           stroke-linejoin="round"
           id="path1010" />
        <g
           id="g1016">
          <path
             d="m 223.293,232.765 c 5.267,2.924 14.177,33.675 18.711,50.587 3.302,12.314 11.004,30.884 9.466,39.088 -2,10.667 -16.909,14.408 -21.75,3.25 -5.122,-11.805 -14.656,-57 -14.656,-57"
             fill="#ebe5dd"
             id="path1012" />
          <path
             d="m 223.293,232.765 c 5.267,2.924 14.177,33.675 18.711,50.587 3.302,12.314 11.004,30.884 9.466,39.088 -2,10.667 -16.909,14.408 -21.75,3.25 -5.122,-11.805 -14.656,-57 -14.656,-57"
             fill-opacity="0"
             stroke="#666666"
             stroke-width="4"
             stroke-linecap="round"
             stroke-linejoin="round"
             id="path1014" />
        </g>
        <path
           d="m 254.883,333.832 c 0,0 2.562,-17.662 -21.247,-19.311 -23.809,-1.648 -32.812,14.843 -28.311,23.128 3.275,6.029 25.451,8.636 36.92,0.391 0,0 9.874,4.3 12.638,-4.208"
           fill="#ffecd0"
           id="path1018" />
        <path
           d="m 254.883,333.832 c 0,0 2.562,-17.662 -21.247,-19.311 -23.809,-1.648 -32.812,14.843 -28.311,23.128 3.275,6.029 25.451,8.636 36.92,0.391 0,0 9.874,4.3 12.638,-4.208 z"
           fill-opacity="0"
           stroke="#666666"
           stroke-width="4"
           stroke-linecap="round"
           stroke-linejoin="round"
           id="path1020" />
        <g
           id="g1026">
          <path
             d="m 227.699,330.034 c 0,0 -2.238,3.365 -1.074,7.081 1.915,6.112 0,0 0,0"
             fill="#7b8394"
             id="path1022" />
          <path
             d="m 227.699,330.034 c 0,0 -2.238,3.365 -1.074,7.081 1.915,6.112 0,0 0,0"
             fill-opacity="0"
             stroke="#666666"
             stroke-width="4"
             stroke-linecap="round"
             stroke-linejoin="round"
             id="path1024" />
        </g>
        <g
           id="g1032">
          <path
             d="m 218.345,327.003 c 0,0 -4.166,2.725 -3.537,9.556 0.977,10.633 0,0 0,0"
             fill="#7b8394"
             id="path1028" />
          <path
             d="m 218.345,327.003 c 0,0 -4.166,2.725 -3.537,9.556 0.977,10.633 0,0 0,0"
             fill-opacity="0"
             stroke="#666666"
             stroke-width="4"
             stroke-linecap="round"
             stroke-linejoin="round"
             id="path1030" />
        </g>
        <path
           d="m 235.885,376.259 c -4.852,-9.317 -12.162,-39.114 -12.162,-39.114 h -67.57 c 0,0 -5.777,18.518 -9.61,39.403 -0.051,0.003 -0.104,0.007 -0.155,0.01 l -29.09,23.25 c 0,0 12.941,-3.451 30.275,6.882 20.864,12.437 23.994,20.159 23.994,20.159 0,0 49.189,2.501 61.304,-1.492 14.667,-4.833 7.866,-39.782 3.014,-49.098"
           fill="#ffd961"
           id="path1034" />
        <path
           d="m 235.885,376.259 c -4.852,-9.317 -12.162,-39.114 -12.162,-39.114 h -67.57 c 0,0 -5.777,18.518 -9.61,39.403 -0.051,0.003 -0.104,0.007 -0.155,0.01 l -29.09,23.25 c 0,0 12.941,-3.451 30.275,6.882 20.864,12.437 23.994,20.159 23.994,20.159 0,0 49.189,2.501 61.304,-1.492 14.667,-4.833 7.866,-39.782 3.014,-49.098 z"
           fill-opacity="0"
           stroke="#666666"
           stroke-width="4"
           stroke-linecap="round"
           stroke-linejoin="round"
           id="path1036" />
        <path
           d="m 14.239,369.74 h 267 c 1.658,0 3,-1.343 3,-3 v -10.835 c 0,-1.657 -1.342,-3 -3,-3 h -267 z"
           fill="#ffeeb0"
           id="path1038" />
        <path
           d="m 14.239,369.74 h 267 c 1.658,0 3,-1.343 3,-3 v -10.835 c 0,-1.657 -1.342,-3 -3,-3 h -267 z"
           fill-opacity="0"
           stroke="#666666"
           stroke-width="4"
           stroke-linecap="round"
           stroke-linejoin="round"
           id="path1040" />
        <g
           id="g1046">
          <path
             d="m 118.828,126.311 c 0,0 -28.142,-5.808 -28.142,19.636 0,14.967 9.689,21.763 29.607,22.048"
             fill="#ffecd0"
             id="path1042" />
          <path
             d="m 118.828,126.311 c 0,0 -28.142,-5.808 -28.142,19.636 0,14.967 9.689,21.763 29.607,22.048"
             fill-opacity="0"
             stroke="#666666"
             stroke-width="4"
             stroke-linecap="round"
             stroke-linejoin="round"
             id="path1044" />
        </g>
        <g
           id="g1052">
          <path
             d="m 101.41,147.324 c 0,0 3.69,-1.704 7.205,-1.682"
             fill="#ffecd0"
             id="path1048" />
          <path
             d="m 101.41,147.324 c 0,0 3.69,-1.704 7.205,-1.682"
             fill-opacity="0"
             stroke="#666666"
             stroke-width="4"
             stroke-linecap="round"
             stroke-linejoin="round"
             id="path1050" />
        </g>
        <g
           id="g1058">
          <path
             d="m 261.047,126.311 c 0,0 28.143,-5.808 28.143,19.636 0,14.967 -9.688,21.763 -29.606,22.048"
             fill="#ffecd0"
             id="path1054" />
          <path
             d="m 261.047,126.311 c 0,0 28.143,-5.808 28.143,19.636 0,14.967 -9.688,21.763 -29.606,22.048"
             fill-opacity="0"
             stroke="#666666"
             stroke-width="4"
             stroke-linecap="round"
             stroke-linejoin="round"
             id="path1056" />
        </g>
        <g
           id="g1064">
          <path
             d="m 278.467,147.324 c 0,0 -3.689,-1.704 -7.205,-1.682"
             fill="#ffecd0"
             id="path1060" />
          <path
             d="m 278.467,147.324 c 0,0 -3.689,-1.704 -7.205,-1.682"
             fill-opacity="0"
             stroke="#666666"
             stroke-width="4"
             stroke-linecap="round"
             stroke-linejoin="round"
             id="path1062" />
        </g>
        <path
           d="m 189.938,223.878 c -120.76,0 -109.076,-196.947 0,-196.947 109.076,0 120.76,196.947 0,196.947"
           fill="#ffecd0"
           id="path1066" />
        <path
           d="m 189.938,223.878 c -120.76,0 -109.076,-196.947 0,-196.947 109.076,0 120.76,196.947 0,196.947 z"
           fill-opacity="0"
           stroke="#666666"
           stroke-width="4"
           stroke-linecap="round"
           stroke-linejoin="round"
           id="path1068" />
        <path
           d="m 186.02,163.357 c 0,0 -1.334,6 3.918,5.667"
           fill-opacity="0"
           stroke="#666666"
           stroke-width="4"
           stroke-linecap="round"
           stroke-linejoin="round"
           id="path1070" />
        <path
           d="m 213.524,182.225 c 0,0 -8.016,9.84 -23.586,9.84 -15.569,0 -23.584,-9.84 -23.584,-9.84"
           fill-opacity="0"
           stroke="#666666"
           stroke-width="4"
           stroke-linecap="round"
           stroke-linejoin="round"
           id="path1072" />
        <path
           d="m 217.221,88.591 c 0,0 3.088,-5 10.301,-5 5.185,0 10.5,6.5 10.5,6.5"
           fill-opacity="0"
           stroke="#666666"
           stroke-width="4"
           stroke-linecap="round"
           stroke-linejoin="round"
           id="path1074" />
        <path
           d="m 231.852,130.106 c 0,7.627 -2.539,13.81 -5.67,13.81 -3.129,0 -5.668,-6.183 -5.668,-13.81 0,-7.627 2.539,-13.808 5.668,-13.808 3.131,0 5.67,6.181 5.67,13.808"
           fill="#666666"
           id="path1076" />
        <path
           d="m 241.453,49.283 c 0,0 9.118,66.312 40.78,73.976 0,0 -8.319,-90.048 -40.78,-73.976"
           fill="#cc8757"
           id="path1078" />
        <g
           id="g1084">
          <path
             d="m 241.861,51.686 c 0,0 11.539,65.406 37.539,72.739"
             fill="#cc8757"
             id="path1080" />
          <path
             d="m 241.861,51.686 c 0,0 11.539,65.406 37.539,72.739"
             fill-opacity="0"
             stroke="#666666"
             stroke-width="4"
             stroke-linecap="round"
             stroke-linejoin="round"
             id="path1082" />
        </g>
        <path
           d="m 242.733,45.092 c 0,0 -34.466,-44.189 -102.33,-10.995 -32.139,15.719 -47.002,88.996 -47.002,88.996 0,0 86.332,-27.667 114.332,-45.667 14.816,-9.525 35,-32.334 35,-32.334"
           fill="#cc8757"
           id="path1086" />
        <g
           id="g1092">
          <path
             d="M 245.013,43.615 C 235.055,63.422 181.4,107.092 137.922,111.408"
             fill="#cc8757"
             id="path1088" />
          <path
             d="M 245.013,43.615 C 235.055,63.422 181.4,107.092 137.922,111.408"
             fill-opacity="0"
             stroke="#666666"
             stroke-width="4"
             stroke-linecap="round"
             stroke-linejoin="round"
             id="path1090" />
        </g>
        <g
           id="g1098">
          <path
             d="m 193.398,47.094 c -12.667,29.333 -40.895,71.243 -96.665,76.665"
             fill="#cc8757"
             id="path1094" />
          <path
             d="m 193.398,47.094 c -12.667,29.333 -40.895,71.243 -96.665,76.665"
             fill-opacity="0"
             stroke="#666666"
             stroke-width="4"
             stroke-linecap="round"
             stroke-linejoin="round"
             id="path1096" />
        </g>
        <path
           d="m 162.656,88.591 c 0,0 -3.087,-5 -10.3,-5 -5.188,0 -10.5,6.5 -10.5,6.5"
           fill-opacity="0"
           stroke="#666666"
           stroke-width="4"
           stroke-linecap="round"
           stroke-linejoin="round"
           id="path1100" />
        <path
           d="m 148.026,130.106 c 0,7.627 2.537,13.81 5.668,13.81 3.13,0 5.668,-6.183 5.668,-13.81 0,-7.627 -2.538,-13.808 -5.668,-13.808 -3.131,0 -5.668,6.181 -5.668,13.808"
           fill="#666666"
           id="path1102" />
        <path
           d="m 44.909,349.924 c 0,1.14 0.924,2.064 2.065,2.064 H 246.57 c 1.14,0 2.064,-0.924 2.064,-2.064 v -7.423 c 0,-1.142 -0.924,-2.066 -2.064,-2.066 H 46.974 c -1.141,0 -2.065,0.924 -2.065,2.066 z"
           fill="#dee1e3"
           id="path1104" />
        <path
           d="m 44.909,349.924 c 0,1.14 0.924,2.064 2.065,2.064 H 246.57 c 1.14,0 2.064,-0.924 2.064,-2.064 v -7.423 c 0,-1.142 -0.924,-2.066 -2.064,-2.066 H 46.974 c -1.141,0 -2.065,0.924 -2.065,2.066 z"
           fill-opacity="0"
           stroke="#666666"
           stroke-width="4"
           stroke-linecap="round"
           stroke-linejoin="round"
           id="path1106" />
        <path
           d="m 39.316,338.472 c 0.678,2.067 2.903,3.742 4.969,3.742 h 142.197 c 2.066,0 3.192,-1.675 2.514,-3.742 L 155.599,236.689 c -0.678,-2.067 -2.902,-3.742 -4.971,-3.742 H 8.432 c -2.068,0 -3.193,1.675 -2.514,3.742 z"
           fill="#dee1e3"
           id="path1108" />
        <path
           d="m 39.316,338.472 c 0.678,2.067 2.903,3.742 4.969,3.742 h 142.197 c 2.066,0 3.192,-1.675 2.514,-3.742 L 155.599,236.689 c -0.678,-2.067 -2.902,-3.742 -4.971,-3.742 H 8.432 c -2.068,0 -3.193,1.675 -2.514,3.742 z"
           fill-opacity="0"
           stroke="#666666"
           stroke-width="4"
           stroke-linecap="round"
           stroke-linejoin="round"
           id="path1110" />
        <path
           d="m 178.144,332.621 -28.78,-87.711 c -0.678,-2.067 -2.903,-3.742 -4.97,-3.742 H 16.573"
           fill-opacity="0"
           stroke="#666666"
           stroke-width="4"
           stroke-linecap="round"
           stroke-linejoin="round"
           id="path1112" />
      </g>
      <text
         xml:space="preserve"
         style="font-style:normal;font-variant:normal;font-weight:normal;font-stretch:normal;font-size:4.93889px;line-height:1.15;font-family:Gabriola;-inkscape-font-specification:'Gabriola, Normal';font-variant-ligatures:normal;font-variant-caps:normal;font-variant-numeric:normal;font-variant-east-asian:normal;text-align:start;text-anchor:start;stroke-width:0.264583"
         x="10.85595"
         y="12.320729"
         id="text1583"><tspan
           sodipodi:role="line"
           id="tspan7928"
           x="10.85595"
           y="12.320729"
           style="font-style:normal;font-variant:normal;font-weight:normal;font-stretch:normal;font-size:4.93889px;font-family:Gabriola;-inkscape-font-specification:'Gabriola, Normal';font-variant-ligatures:normal;font-variant-caps:normal;font-variant-numeric:normal;font-variant-east-asian:normal">Hello. I'm Hannah, and I'm here to help you</tspan><tspan
           sodipodi:role="line"
           id="tspan7930"
           x="10.85595"
           y="18.000454"
           style="font-style:normal;font-variant:normal;font-weight:normal;font-stretch:normal;font-size:4.93889px;font-family:Gabriola;-inkscape-font-specification:'Gabriola, Normal';font-variant-ligatures:normal;font-variant-caps:normal;font-variant-numeric:normal;font-variant-east-asian:normal">learn how to use some basic git commands.</tspan></text>
      <text
         xml:space="preserve"
         style="font-style:normal;font-variant:normal;font-weight:normal;font-stretch:normal;font-size:4.93889px;line-height:1.15;font-family:Gabriola;-inkscape-font-specification:'Gabriola, Normal';font-variant-ligatures:normal;font-variant-caps:normal;font-variant-numeric:normal;font-variant-east-asian:normal;text-align:start;text-anchor:start;stroke-width:0.264583"
         x="63.971985"
         y="26.831812"
         id="text14983"><tspan
           sodipodi:role="line"
           id="tspan15045"
           x="63.971985"
           y="26.831812">I'm going to assume that if you here, then you</tspan><tspan
           sodipodi:role="line"
           id="tspan15047"
           x="63.971985"
           y="32.511536">either have no experience with using git or have</tspan><tspan
           sodipodi:role="line"
           id="tspan15049"
           x="63.971985"
           y="38.191257">only used git via an IDE.</tspan></text>
      <text
         xml:space="preserve"
         style="font-style:normal;font-variant:normal;font-weight:normal;font-stretch:normal;font-size:4.93889px;line-height:1.15;font-family:Gabriola;-inkscape-font-specification:'Gabriola, Normal';font-variant-ligatures:normal;font-variant-caps:normal;font-variant-numeric:normal;font-variant-east-asian:normal;text-align:start;text-anchor:start;stroke-width:0.264583"
         x="63.971985"
         y="48.46154"
         id="text15147"><tspan
           sodipodi:role="line"
           id="tspan15187"
           x="63.971985"
           y="48.46154">I will cover all you need to know to work with an</tspan><tspan
           sodipodi:role="line"
           id="tspan15189"
           x="63.971985"
           y="54.141262">existing repository and to save changes back to it.</tspan></text>
      <text
         xml:space="preserve"
         style="font-style:normal;font-variant:normal;font-weight:normal;font-stretch:normal;font-size:4.93889px;line-height:1.15;font-family:Gabriola;-inkscape-font-specification:'Gabriola, Normal';font-variant-ligatures:normal;font-variant-caps:normal;font-variant-numeric:normal;font-variant-east-asian:normal;text-align:start;text-anchor:start;stroke-width:0.264583"
         x="64.179382"
         y="70.091263"
         id="text15288"><tspan
           sodipodi:role="line"
           id="tspan15844"
           x="64.179382"
           y="70.091263">Here we won't cover how to create your own</tspan><tspan
           sodipodi:role="line"
           id="tspan15846"
           x="64.179382"
           y="75.770988">repository or the more advanced features of git.</tspan><tspan
           sodipodi:role="line"
           id="tspan15848"
           x="64.179382"
           y="81.450706">Although git is very powerful, I want to help you</tspan><tspan
           sodipodi:role="line"
           id="tspan15850"
           x="64.179382"
           y="87.130432">get started as soon as possible. You can read my</tspan><tspan
           sodipodi:role="line"
           id="tspan15852"
           x="64.179382"
           y="92.810158">other guides on the more advanced features or do</tspan><tspan
           sodipodi:role="line"
           id="tspan15854"
           x="64.179382"
           y="98.489883">your own research once you know the basics.</tspan></text>
    </g>
    <g
       clip-path="url(#Clip_1)"
       id="g18976"
       transform="matrix(0.14988669,0,0,0.14988669,12.947135,150.09231)">
      <path
         d="m 215.064,268.677 0.012,-0.042 -0.011,0.052 z m 1.811,30.284 -1.81,-30.265 c 0.039,0.182 5.982,28.337 10.995,45.942 -1.464,0.154 -2.862,0.379 -4.176,0.678 z m -77.473,249.561 v -3.641 c 0,0 -0.187,-0.021 -0.518,-0.048 l -0.693,-78.89 9.338,79.252 h 1.737 c -3.459,0.525 -7.028,1.519 -9.864,3.327 M 281.239,352.905 h -47.844 l -0.281,-0.917 h 13.456 c 1.14,0 2.064,-0.924 2.064,-2.064 v -7.423 c 0,-1.142 -0.924,-2.066 -2.064,-2.066 h -8.611 c 1.536,-0.668 2.983,-1.458 4.286,-2.395 0,0 9.874,4.3 12.638,-4.208 0,0 0.905,-6.251 -3.373,-11.662 1.33,-8.332 -6.239,-26.634 -9.506,-38.818 -3.433,-12.806 -9.376,-33.541 -14.346,-44.126 10.915,-3.858 16.481,-9.203 19.315,-13.711 C 334.25,195.87 305.395,81.592 263.184,41.792 256.453,35.446 249.788,30.261 243.239,26.079 242.75,25.397 242.233,24.752 241.68,24.152 222.354,3.208 172.08,-9.641 117.535,41.792 c -42.211,39.8 -71.067,154.078 16.211,183.723 1.483,2.359 3.722,4.947 7.076,7.432 H 8.432 c -2.068,0 -3.193,1.675 -2.514,3.742 l 33.398,101.783 c 0.678,2.067 2.903,3.742 4.969,3.742 h 0.654 c -0.014,0.095 -0.03,0.188 -0.03,0.287 v 7.423 c 0,1.14 0.924,2.064 2.065,2.064 h 99.788 l -0.281,0.917 H 14.239 v 16.835 h 133.635 c -0.46,2.227 -0.908,4.501 -1.331,6.808 -0.051,0.003 -0.104,0.007 -0.155,0.01 l -27.938,22.329 c -7.589,5.67 -8.051,12.837 -7.965,15.27 -0.496,3.91 -0.028,7.36 -0.028,7.36 l 14.573,123.678 h 1.737 c -4.668,0.707 -9.544,2.263 -12.535,5.533 -5.705,6.237 -2.188,8.236 -2.188,8.236 h 49.857 v -14.083 c 0,0 -0.187,-0.021 -0.518,-0.048 l -1.043,-118.673 10.87,0.013 c 0.26,0.441 0.357,0.676 0.357,0.676 0,0 49.189,2.501 61.304,-1.492 14.667,-4.833 7.866,-39.782 3.014,-49.098 -0.85,-1.632 -1.775,-3.901 -2.724,-6.519 h 48.078 c 1.658,0 3,-1.343 3,-3 v -10.835 c 0,-1.657 -1.342,-3 -3,-3"
         fill="#666666"
         id="path18842" />
      <path
         d="m 215.064,268.677 0.012,-0.042 -0.011,0.052 z m 1.811,30.284 -1.81,-30.265 c 0.039,0.182 5.982,28.337 10.995,45.942 -1.464,0.154 -2.862,0.379 -4.176,0.678 z m -77.473,249.561 v -3.641 c 0,0 -0.187,-0.021 -0.518,-0.048 l -0.693,-78.89 9.338,79.252 h 1.737 c -3.459,0.525 -7.028,1.519 -9.864,3.327 z M 281.239,352.905 h -47.844 l -0.281,-0.917 h 13.456 c 1.14,0 2.064,-0.924 2.064,-2.064 v -7.423 c 0,-1.142 -0.924,-2.066 -2.064,-2.066 h -8.611 c 1.536,-0.668 2.983,-1.458 4.286,-2.395 0,0 9.874,4.3 12.638,-4.208 0,0 0.905,-6.251 -3.373,-11.662 1.33,-8.332 -6.239,-26.634 -9.506,-38.818 -3.433,-12.806 -9.376,-33.541 -14.346,-44.126 10.915,-3.858 16.481,-9.203 19.315,-13.711 C 334.25,195.87 305.395,81.592 263.184,41.792 256.453,35.446 249.788,30.261 243.239,26.079 242.75,25.397 242.233,24.752 241.68,24.152 222.354,3.208 172.08,-9.641 117.535,41.792 c -42.211,39.8 -71.067,154.078 16.211,183.723 1.483,2.359 3.722,4.947 7.076,7.432 H 8.432 c -2.068,0 -3.193,1.675 -2.514,3.742 l 33.398,101.783 c 0.678,2.067 2.903,3.742 4.969,3.742 h 0.654 c -0.014,0.095 -0.03,0.188 -0.03,0.287 v 7.423 c 0,1.14 0.924,2.064 2.065,2.064 h 99.788 l -0.281,0.917 H 14.239 v 16.835 h 133.635 c -0.46,2.227 -0.908,4.501 -1.331,6.808 -0.051,0.003 -0.104,0.007 -0.155,0.01 l -27.938,22.329 c -7.589,5.67 -8.051,12.837 -7.965,15.27 -0.496,3.91 -0.028,7.36 -0.028,7.36 l 14.573,123.678 h 1.737 c -4.668,0.707 -9.544,2.263 -12.535,5.533 -5.705,6.237 -2.188,8.236 -2.188,8.236 h 49.857 v -14.083 c 0,0 -0.187,-0.021 -0.518,-0.048 l -1.043,-118.673 10.87,0.013 c 0.26,0.441 0.357,0.676 0.357,0.676 0,0 49.189,2.501 61.304,-1.492 14.667,-4.833 7.866,-39.782 3.014,-49.098 -0.85,-1.632 -1.775,-3.901 -2.724,-6.519 h 48.078 c 1.658,0 3,-1.343 3,-3 v -10.835 c 0,-1.657 -1.342,-3 -3,-3 z"
         fill-opacity="0"
         stroke="#666666"
         stroke-width="8"
         stroke-linecap="round"
         stroke-linejoin="round"
         id="path18844" />
      <path
         d="m 263.184,41.792 c -6.731,-6.346 -13.396,-11.531 -19.945,-15.713 -0.489,-0.682 -1.006,-1.328 -1.559,-1.927 -19.326,-20.944 -69.6,-33.793 -124.145,17.64 -42.211,39.8 -71.067,154.078 16.211,183.722 5.058,8.049 18.81,18.764 56.192,18.925 v 0.006 c 0.142,0 0.279,-0.003 0.422,-0.003 0.142,0 0.279,0.003 0.421,0.003 v -0.006 c 37.381,-0.161 51.134,-10.876 56.192,-18.924 87.276,-29.645 58.421,-143.923 16.211,-183.723"
         fill="#cc8757"
         id="path18846" />
      <path
         d="m 263.184,41.792 c -6.731,-6.346 -13.396,-11.531 -19.945,-15.713 -0.489,-0.682 -1.006,-1.328 -1.559,-1.927 -19.326,-20.944 -69.6,-33.793 -124.145,17.64 -42.211,39.8 -71.067,154.078 16.211,183.722 5.058,8.049 18.81,18.764 56.192,18.925 v 0.006 c 0.142,0 0.279,-0.003 0.422,-0.003 0.142,0 0.279,0.003 0.421,0.003 v -0.006 c 37.381,-0.161 51.134,-10.876 56.192,-18.924 87.276,-29.645 58.421,-143.923 16.211,-183.723 z"
         fill-opacity="0"
         stroke="#666666"
         stroke-width="4"
         stroke-linecap="round"
         stroke-linejoin="round"
         id="path18848" />
      <path
         d="m 190.096,346.623 28.353,-1.854 -25.728,-100.356 -2.783,0.414 -2.783,-0.414 -25.729,100.356 28.354,1.854 v 0.021 l 0.158,-0.01 0.158,0.01 z"
         fill="#ffffff"
         id="path18850" />
      <path
         d="m 190.096,346.623 28.353,-1.854 -25.728,-100.356 -2.783,0.414 -2.783,-0.414 -25.729,100.356 28.354,1.854 v 0.021 l 0.158,-0.01 0.158,0.01 z"
         fill-opacity="0"
         stroke="#000000"
         stroke-width="4"
         id="path18852" />
      <path
         d="m 218.082,324.993 h -56.289 l -4.229,12.266 h 64.748 z"
         fill="#666666"
         id="path18854" />
      <path
         d="m 218.082,324.993 h -56.289 l -4.229,12.266 h 64.748 z"
         fill-opacity="0"
         stroke="#666666"
         stroke-width="4"
         stroke-linecap="round"
         stroke-linejoin="round"
         id="path18856" />
      <g
         id="g18862">
        <path
           d="m 164.812,268.677 -1.812,30.284 -20.019,65.374 30.068,1.992 h 0.001 c 0,0 0.005,0 0.006,10e-4 l 0.411,0.021 c 1.234,0.024 4.943,-0.227 6.842,-3.932 2.297,-4.484 2.062,-15.24 2.062,-15.24 l 7.567,-118.16 c 0,0 -23.61,-1.665 -33.356,3.748 -0.658,0.365 -1.345,1.042 -2.054,1.985"
           fill="#ebe5dd"
           id="path18858" />
        <path
           d="m 164.812,268.677 -1.812,30.284 -20.019,65.374 30.068,1.992 h 0.001 c 0,0 0.005,0 0.006,10e-4 l 0.411,0.021 c 1.234,0.024 4.943,-0.227 6.842,-3.932 2.297,-4.484 2.062,-15.24 2.062,-15.24 l 7.567,-118.16 c 0,0 -23.61,-1.665 -33.356,3.748 -0.658,0.365 -1.345,1.042 -2.054,1.985"
           fill-opacity="0"
           stroke="#666666"
           stroke-width="4"
           stroke-linecap="round"
           stroke-linejoin="round"
           id="path18860" />
      </g>
      <g
         id="g18868">
        <path
           d="m 215.064,268.677 1.811,30.284 20.02,65.374 -30.069,1.992 h -0.001 c 0,0 -0.004,0 -0.005,10e-4 l -0.412,0.021 c -1.234,0.024 -4.943,-0.227 -6.841,-3.932 -2.297,-4.484 -2.063,-15.24 -2.063,-15.24 l -7.566,-118.16 c 0,0 23.609,-1.665 33.355,3.748 0.658,0.365 1.346,1.042 2.055,1.985"
           fill="#ebe5dd"
           id="path18864" />
        <path
           d="m 215.064,268.677 1.811,30.284 20.02,65.374 -30.069,1.992 h -0.001 c 0,0 -0.004,0 -0.005,10e-4 l -0.412,0.021 c -1.234,0.024 -4.943,-0.227 -6.841,-3.932 -2.297,-4.484 -2.063,-15.24 -2.063,-15.24 l -7.566,-118.16 c 0,0 23.609,-1.665 33.355,3.748 0.658,0.365 1.346,1.042 2.055,1.985"
           fill-opacity="0"
           stroke="#666666"
           stroke-width="4"
           stroke-linecap="round"
           stroke-linejoin="round"
           id="path18866" />
      </g>
      <path
         d="m 197.789,229.718 -1.361,-14.38 -6.49,-4.22 -6.49,4.22 -1.362,14.38 -8.955,0.545 c 0,0 6.682,14.606 16.807,14.606 10.127,0 16.807,-14.606 16.807,-14.606 z"
         fill="#ffecd0"
         id="path18870" />
      <path
         d="m 197.789,229.718 -1.361,-14.38 -6.49,-4.22 -6.49,4.22 -1.362,14.38 -8.955,0.545 c 0,0 6.682,14.606 16.807,14.606 10.127,0 16.807,-14.606 16.807,-14.606 z"
         fill-opacity="0"
         stroke="#666666"
         stroke-width="4"
         stroke-linecap="round"
         stroke-linejoin="round"
         id="path18872" />
      <g
         id="g18878">
        <path
           d="m 223.293,232.765 c 5.267,2.924 14.177,33.675 18.711,50.587 3.302,12.314 11.004,30.884 9.466,39.088 -2,10.667 -16.909,14.408 -21.75,3.25 -5.122,-11.805 -14.656,-57 -14.656,-57"
           fill="#ebe5dd"
           id="path18874" />
        <path
           d="m 223.293,232.765 c 5.267,2.924 14.177,33.675 18.711,50.587 3.302,12.314 11.004,30.884 9.466,39.088 -2,10.667 -16.909,14.408 -21.75,3.25 -5.122,-11.805 -14.656,-57 -14.656,-57"
           fill-opacity="0"
           stroke="#666666"
           stroke-width="4"
           stroke-linecap="round"
           stroke-linejoin="round"
           id="path18876" />
      </g>
      <path
         d="m 254.883,333.832 c 0,0 2.562,-17.662 -21.247,-19.311 -23.809,-1.648 -32.812,14.843 -28.311,23.128 3.275,6.029 25.451,8.636 36.92,0.391 0,0 9.874,4.3 12.638,-4.208"
         fill="#ffecd0"
         id="path18880" />
      <path
         d="m 254.883,333.832 c 0,0 2.562,-17.662 -21.247,-19.311 -23.809,-1.648 -32.812,14.843 -28.311,23.128 3.275,6.029 25.451,8.636 36.92,0.391 0,0 9.874,4.3 12.638,-4.208 z"
         fill-opacity="0"
         stroke="#666666"
         stroke-width="4"
         stroke-linecap="round"
         stroke-linejoin="round"
         id="path18882" />
      <g
         id="g18888">
        <path
           d="m 227.699,330.034 c 0,0 -2.238,3.365 -1.074,7.081 1.915,6.112 0,0 0,0"
           fill="#7b8394"
           id="path18884" />
        <path
           d="m 227.699,330.034 c 0,0 -2.238,3.365 -1.074,7.081 1.915,6.112 0,0 0,0"
           fill-opacity="0"
           stroke="#666666"
           stroke-width="4"
           stroke-linecap="round"
           stroke-linejoin="round"
           id="path18886" />
      </g>
      <g
         id="g18894">
        <path
           d="m 218.345,327.003 c 0,0 -4.166,2.725 -3.537,9.556 0.977,10.633 0,0 0,0"
           fill="#7b8394"
           id="path18890" />
        <path
           d="m 218.345,327.003 c 0,0 -4.166,2.725 -3.537,9.556 0.977,10.633 0,0 0,0"
           fill-opacity="0"
           stroke="#666666"
           stroke-width="4"
           stroke-linecap="round"
           stroke-linejoin="round"
           id="path18892" />
      </g>
      <path
         d="m 235.885,376.259 c -4.852,-9.317 -12.162,-39.114 -12.162,-39.114 h -67.57 c 0,0 -5.777,18.518 -9.61,39.403 -0.051,0.003 -0.104,0.007 -0.155,0.01 l -29.09,23.25 c 0,0 12.941,-3.451 30.275,6.882 20.864,12.437 23.994,20.159 23.994,20.159 0,0 49.189,2.501 61.304,-1.492 14.667,-4.833 7.866,-39.782 3.014,-49.098"
         fill="#ffd961"
         id="path18896" />
      <path
         d="m 235.885,376.259 c -4.852,-9.317 -12.162,-39.114 -12.162,-39.114 h -67.57 c 0,0 -5.777,18.518 -9.61,39.403 -0.051,0.003 -0.104,0.007 -0.155,0.01 l -29.09,23.25 c 0,0 12.941,-3.451 30.275,6.882 20.864,12.437 23.994,20.159 23.994,20.159 0,0 49.189,2.501 61.304,-1.492 14.667,-4.833 7.866,-39.782 3.014,-49.098 z"
         fill-opacity="0"
         stroke="#666666"
         stroke-width="4"
         stroke-linecap="round"
         stroke-linejoin="round"
         id="path18898" />
      <path
         d="m 14.239,369.74 h 267 c 1.658,0 3,-1.343 3,-3 v -10.835 c 0,-1.657 -1.342,-3 -3,-3 h -267 z"
         fill="#ffeeb0"
         id="path18900" />
      <path
         d="m 14.239,369.74 h 267 c 1.658,0 3,-1.343 3,-3 v -10.835 c 0,-1.657 -1.342,-3 -3,-3 h -267 z"
         fill-opacity="0"
         stroke="#666666"
         stroke-width="4"
         stroke-linecap="round"
         stroke-linejoin="round"
         id="path18902" />
      <g
         id="g18908">
        <path
           d="m 118.828,126.311 c 0,0 -28.142,-5.808 -28.142,19.636 0,14.967 9.689,21.763 29.607,22.048"
           fill="#ffecd0"
           id="path18904" />
        <path
           d="m 118.828,126.311 c 0,0 -28.142,-5.808 -28.142,19.636 0,14.967 9.689,21.763 29.607,22.048"
           fill-opacity="0"
           stroke="#666666"
           stroke-width="4"
           stroke-linecap="round"
           stroke-linejoin="round"
           id="path18906" />
      </g>
      <g
         id="g18914">
        <path
           d="m 101.41,147.324 c 0,0 3.69,-1.704 7.205,-1.682"
           fill="#ffecd0"
           id="path18910" />
        <path
           d="m 101.41,147.324 c 0,0 3.69,-1.704 7.205,-1.682"
           fill-opacity="0"
           stroke="#666666"
           stroke-width="4"
           stroke-linecap="round"
           stroke-linejoin="round"
           id="path18912" />
      </g>
      <g
         id="g18920">
        <path
           d="m 261.047,126.311 c 0,0 28.143,-5.808 28.143,19.636 0,14.967 -9.688,21.763 -29.606,22.048"
           fill="#ffecd0"
           id="path18916" />
        <path
           d="m 261.047,126.311 c 0,0 28.143,-5.808 28.143,19.636 0,14.967 -9.688,21.763 -29.606,22.048"
           fill-opacity="0"
           stroke="#666666"
           stroke-width="4"
           stroke-linecap="round"
           stroke-linejoin="round"
           id="path18918" />
      </g>
      <g
         id="g18926">
        <path
           d="m 278.467,147.324 c 0,0 -3.689,-1.704 -7.205,-1.682"
           fill="#ffecd0"
           id="path18922" />
        <path
           d="m 278.467,147.324 c 0,0 -3.689,-1.704 -7.205,-1.682"
           fill-opacity="0"
           stroke="#666666"
           stroke-width="4"
           stroke-linecap="round"
           stroke-linejoin="round"
           id="path18924" />
      </g>
      <path
         d="m 189.938,223.878 c -120.76,0 -109.076,-196.947 0,-196.947 109.076,0 120.76,196.947 0,196.947"
         fill="#ffecd0"
         id="path18928" />
      <path
         d="m 189.938,223.878 c -120.76,0 -109.076,-196.947 0,-196.947 109.076,0 120.76,196.947 0,196.947 z"
         fill-opacity="0"
         stroke="#666666"
         stroke-width="4"
         stroke-linecap="round"
         stroke-linejoin="round"
         id="path18930" />
      <path
         d="m 186.02,163.357 c 0,0 -1.334,6 3.918,5.667"
         fill-opacity="0"
         stroke="#666666"
         stroke-width="4"
         stroke-linecap="round"
         stroke-linejoin="round"
         id="path18932" />
      <path
         d="m 213.524,182.225 c 0,0 -8.016,9.84 -23.586,9.84 -15.569,0 -23.584,-9.84 -23.584,-9.84"
         fill-opacity="0"
         stroke="#666666"
         stroke-width="4"
         stroke-linecap="round"
         stroke-linejoin="round"
         id="path18934" />
      <path
         d="m 217.221,88.591 c 0,0 3.088,-5 10.301,-5 5.185,0 10.5,6.5 10.5,6.5"
         fill-opacity="0"
         stroke="#666666"
         stroke-width="4"
         stroke-linecap="round"
         stroke-linejoin="round"
         id="path18936" />
      <path
         d="m 231.852,130.106 c 0,7.627 -2.539,13.81 -5.67,13.81 -3.129,0 -5.668,-6.183 -5.668,-13.81 0,-7.627 2.539,-13.808 5.668,-13.808 3.131,0 5.67,6.181 5.67,13.808"
         fill="#666666"
         id="path18938" />
      <path
         d="m 241.453,49.283 c 0,0 9.118,66.312 40.78,73.976 0,0 -8.319,-90.048 -40.78,-73.976"
         fill="#cc8757"
         id="path18940" />
      <g
         id="g18946">
        <path
           d="m 241.861,51.686 c 0,0 11.539,65.406 37.539,72.739"
           fill="#cc8757"
           id="path18942" />
        <path
           d="m 241.861,51.686 c 0,0 11.539,65.406 37.539,72.739"
           fill-opacity="0"
           stroke="#666666"
           stroke-width="4"
           stroke-linecap="round"
           stroke-linejoin="round"
           id="path18944" />
      </g>
      <path
         d="m 242.733,45.092 c 0,0 -34.466,-44.189 -102.33,-10.995 -32.139,15.719 -47.002,88.996 -47.002,88.996 0,0 86.332,-27.667 114.332,-45.667 14.816,-9.525 35,-32.334 35,-32.334"
         fill="#cc8757"
         id="path18948" />
      <g
         id="g18954">
        <path
           d="M 245.013,43.615 C 235.055,63.422 181.4,107.092 137.922,111.408"
           fill="#cc8757"
           id="path18950" />
        <path
           d="M 245.013,43.615 C 235.055,63.422 181.4,107.092 137.922,111.408"
           fill-opacity="0"
           stroke="#666666"
           stroke-width="4"
           stroke-linecap="round"
           stroke-linejoin="round"
           id="path18952" />
      </g>
      <g
         id="g18960">
        <path
           d="m 193.398,47.094 c -12.667,29.333 -40.895,71.243 -96.665,76.665"
           fill="#cc8757"
           id="path18956" />
        <path
           d="m 193.398,47.094 c -12.667,29.333 -40.895,71.243 -96.665,76.665"
           fill-opacity="0"
           stroke="#666666"
           stroke-width="4"
           stroke-linecap="round"
           stroke-linejoin="round"
           id="path18958" />
      </g>
      <path
         d="m 162.656,88.591 c 0,0 -3.087,-5 -10.3,-5 -5.188,0 -10.5,6.5 -10.5,6.5"
         fill-opacity="0"
         stroke="#666666"
         stroke-width="4"
         stroke-linecap="round"
         stroke-linejoin="round"
         id="path18962" />
      <path
         d="m 148.026,130.106 c 0,7.627 2.537,13.81 5.668,13.81 3.13,0 5.668,-6.183 5.668,-13.81 0,-7.627 -2.538,-13.808 -5.668,-13.808 -3.131,0 -5.668,6.181 -5.668,13.808"
         fill="#666666"
         id="path18964" />
      <path
         d="m 44.909,349.924 c 0,1.14 0.924,2.064 2.065,2.064 H 246.57 c 1.14,0 2.064,-0.924 2.064,-2.064 v -7.423 c 0,-1.142 -0.924,-2.066 -2.064,-2.066 H 46.974 c -1.141,0 -2.065,0.924 -2.065,2.066 z"
         fill="#dee1e3"
         id="path18966" />
      <path
         d="m 44.909,349.924 c 0,1.14 0.924,2.064 2.065,2.064 H 246.57 c 1.14,0 2.064,-0.924 2.064,-2.064 v -7.423 c 0,-1.142 -0.924,-2.066 -2.064,-2.066 H 46.974 c -1.141,0 -2.065,0.924 -2.065,2.066 z"
         fill-opacity="0"
         stroke="#666666"
         stroke-width="4"
         stroke-linecap="round"
         stroke-linejoin="round"
         id="path18968" />
      <path
         d="m 39.316,338.472 c 0.678,2.067 2.903,3.742 4.969,3.742 h 142.197 c 2.066,0 3.192,-1.675 2.514,-3.742 L 155.599,236.689 c -0.678,-2.067 -2.902,-3.742 -4.971,-3.742 H 8.432 c -2.068,0 -3.193,1.675 -2.514,3.742 z"
         fill="#dee1e3"
         id="path18970" />
      <path
         d="m 39.316,338.472 c 0.678,2.067 2.903,3.742 4.969,3.742 h 142.197 c 2.066,0 3.192,-1.675 2.514,-3.742 L 155.599,236.689 c -0.678,-2.067 -2.902,-3.742 -4.971,-3.742 H 8.432 c -2.068,0 -3.193,1.675 -2.514,3.742 z"
         fill-opacity="0"
         stroke="#666666"
         stroke-width="4"
         stroke-linecap="round"
         stroke-linejoin="round"
         id="path18972" />
      <path
         d="m 178.144,332.621 -28.78,-87.711 c -0.678,-2.067 -2.903,-3.742 -4.97,-3.742 H 16.573"
         fill-opacity="0"
         stroke="#666666"
         stroke-width="4"
         stroke-linecap="round"
         stroke-linejoin="round"
         id="path18974" />
    </g>
    <text
       xml:space="preserve"
       style="font-style:normal;font-variant:normal;font-weight:normal;font-stretch:normal;font-size:4.93889px;line-height:1.15;font-family:Gabriola;-inkscape-font-specification:'Gabriola, Normal';font-variant-ligatures:normal;font-variant-caps:normal;font-variant-numeric:normal;font-variant-east-asian:normal;text-align:start;text-anchor:start;stroke-width:0.264583"
       x="14.141479"
       y="114.44589"
       id="text19150"><tspan
         sodipodi:role="line"
         id="tspan19552">What is git?</tspan></text>
    <text
       xml:space="preserve"
       style="font-style:normal;font-variant:normal;font-weight:normal;font-stretch:normal;font-size:4.93889px;line-height:1.15;font-family:Gabriola;-inkscape-font-specification:'Gabriola, Normal';font-variant-ligatures:normal;font-variant-caps:normal;font-variant-numeric:normal;font-variant-east-asian:normal;text-align:start;text-anchor:start;stroke-width:0.264583"
       x="60.412663"
       y="121.01694"
       id="text19178"><tspan
         sodipodi:role="line"
         id="tspan19890"
         x="60.412663"
         y="121.01694">Git is a powerful version control system used by many</tspan><tspan
         sodipodi:role="line"
         id="tspan19892"
         x="60.412663"
         y="126.69666">projects to maintain their code base and help manage</tspan><tspan
         sodipodi:role="line"
         id="tspan19894"
         x="60.412663"
         y="132.37639">changes.</tspan></text>
    <text
       xml:space="preserve"
       style="font-style:normal;font-variant:normal;font-weight:normal;font-stretch:normal;font-size:4.93889px;line-height:1.15;font-family:Gabriola;-inkscape-font-specification:'Gabriola, Normal';font-variant-ligatures:normal;font-variant-caps:normal;font-variant-numeric:normal;font-variant-east-asian:normal;text-align:start;text-anchor:start;stroke-width:0.264583"
       x="59.939835"
       y="139.90874"
       id="text20076"><tspan
         sodipodi:role="line"
         id="tspan20423"
         x="59.939835"
         y="139.90874">One important aspect of git is that it is an example</tspan><tspan
         sodipodi:role="line"
         id="tspan20425"
         x="59.939835"
         y="145.58846">of a distributed version control system. You will see</tspan><tspan
         sodipodi:role="line"
         id="tspan20427"
         x="59.939835"
         y="151.26819">why this is relevant later, but for now you just need to</tspan><tspan
         sodipodi:role="line"
         id="tspan20429"
         x="59.939835"
         y="156.94791">know this means that every user of a repository gets</tspan><tspan
         sodipodi:role="line"
         id="tspan20431"
         x="59.939835"
         y="162.62762">their own copy of the full version history of that</tspan><tspan
         sodipodi:role="line"
         id="tspan20433"
         x="59.939835"
         y="168.30736">repository.</tspan></text>
    <text
       xml:space="preserve"
       style="font-style:normal;font-variant:normal;font-weight:normal;font-stretch:normal;font-size:4.93889px;line-height:1.15;font-family:Gabriola;-inkscape-font-specification:'Gabriola, Normal';font-variant-ligatures:normal;font-variant-caps:normal;font-variant-numeric:normal;font-variant-east-asian:normal;text-align:start;text-anchor:start;stroke-width:0.264583"
       x="60.213627"
       y="179.60887"
       id="text20929"><tspan
         sodipodi:role="line"
         id="tspan21139">There are many git repository hosts available, some </tspan><tspan
         sodipodi:role="line"
         id="tspan21141">you may have heard of are gitlab, github and</tspan><tspan
         sodipodi:role="line"
         id="tspan21143">bitbucket. You can even host a git repository yourself</tspan><tspan
         sodipodi:role="line"
         id="tspan21145">if you wish, although we won't be covering that today.</tspan></text>
  </g>
</svg>
